<svg xmlns="http://www.w3.org/2000/svg" viewBox="0 0 64 80" x="0px" y="0px"><title>back, return, arrow, turnaround</title><g><path d="M51.9121,35.6162A14.8632,14.8632,0,0,1,37.0654,50.4619H14.7617a2,2,0,1,1,0-4H37.0654a10.8462,10.8462,0,1,0,0-21.6924H18.916l3.8174,3.8174a2,2,0,1,1-2.8281,2.8281l-7.2315-7.2314c-.0294-.0294-.05-.0637-.0772-.0945-.031-.0349-.0594-.07-.0879-.1077a1.99,1.99,0,0,1-.26-.4318l-.0087-.0144-.0009-.0039a1.9865,1.9865,0,0,1-.1274-.5118c-.0052-.0412-.0092-.0813-.0118-.1226a2.0072,2.0072,0,0,1,.0261-.5151l.0038-.0127a1.993,1.993,0,0,1,.1691-.4748c.0186-.0381.0376-.0746.0586-.1116a1.9851,1.9851,0,0,1,.3161-.4272l7.2315-7.2315a2,2,0,0,1,2.8281,2.8281L18.916,20.77H37.0654A14.8634,14.8634,0,0,1,51.9121,35.6162Z"/></g><text x="0" y="79" fill="#000000" font-size="5px" font-weight="bold" font-family="'Helvetica Neue', Helvetica, Arial-Unicode, Arial, Sans-serif">Created by The Icon Z</text><text x="0" y="84" fill="#000000" font-size="5px" font-weight="bold" font-family="'Helvetica Neue', Helvetica, Arial-Unicode, Arial, Sans-serif">from the Noun Project</text></svg>